# xmcd
#
# Track frame offsets:
#	150
#	26909
#	44431
#	58555
#	75882
#	98923
#	118943
#	143477
#	158156
#	160963
#	188207
#	207436
#	232350
#	249724
#	266103
#	284774
#	303212
#	319121
#	336213
#
# Disc length: 4698 seconds
#
# Revision: 0
# Processed by: cddbd v1.5.2PL0 Copyright (c) Steve Scherf et al.
# Submitted via: EZCDAudioConverter 1.3.3.1
#
DISCID=1c125813
DTITLE=Corpse Grinder - Corpse Grinder - Cancerbero - Hellfire
DYEAR=2008
DGENRE=
TTITLE0=Corpse Grinder - distracted or evil
TTITLE1=Corpse Grinder - concentration camps
TTITLE2=Corpse Grinder - legions
TTITLE3=Corpse Grinder - decay
TTITLE4=Corpse Grinder - premonition
TTITLE5=Corpse Grinder - chemical war
TTITLE6=Cancerbero - hellhound (the return...)
TTITLE7=Cancerbero - into death
TTITLE8=Cancerbero - feña's flight
TTITLE9=Cancerbero - forgotten reality
TTITLE10=Cancerbero - carnage of the dead
TTITLE11=Cancerbero - dark message
TTITLE12=Cancerbero - pestilent vomit
TTITLE13=Hellfire - mad
TTITLE14=Hellfire - don't care
TTITLE15=Hellfire - after dead
TTITLE16=Hellfire - macabre born
TTITLE17=Hellfire - rest in pieces
TTITLE18=Hellfire - after dead
EXTD=
EXTT0=
EXTT1=
EXTT2=
EXTT3=
EXTT4=
EXTT5=
EXTT6=
EXTT7=
EXTT8=
EXTT9=
EXTT10=
EXTT11=
EXTT12=
EXTT13=
EXTT14=
EXTT15=
EXTT16=
EXTT17=
EXTT18=
PLAYORDER=
